:SAMPLES-PER-SECOND 30
:FULLY-SPECIFIED
:DEGREES
221
root  -27.6093 34.7349 6.01443 -171.037 57.5979 178.414
RightUpLeg  -9.1243 -19.2563 -3.15026
RightLeg  3.83464 -3.33528 -0.00761771
RightFoot  8.87222 0.0649169 -0.342773
RightToes  -29.1279 -0.139862 -0.247144
Spine  -1.23306 0.46585 -0.502613
Spine1  -2.52162 1.13042 -0.479251
HEad  -40.0333 19.4873 -9.0114
LeftShoulder1  -1.94126e-019 -3.10601e-018 -2.51263e-017
LeftArm  1.2642 10.2776 -80.838
LeftForeArm  28.9849 -40.1378 -7.58505
LeftHand  -0.382393 -1.8414 6.32154
RightShoulder  -4.96962e-017 0 -2.36833e-017
RightArm  -24.9597 -18.4183 76.7256
RightForeArm  53.8044 15.2927 1.14199
RightHand  -0.348984 -1.2179 -9.7211
LeftUpLeg  -9.56106 -0.655052 1.64518
LeftLeg  3.43215 13.0036 -0.0566492
LeftFoot  8.22949 -0.129268 2.03612
LeftToes  -22.2218 1.49739e-006 1.00523e-007
222
root  -27.6263 34.7445 5.87346 -171.357 57.5303 178.316
RightUpLeg  -8.70082 -19.4081 -3.52228
RightLeg  3.71541 -3.23516 -0.000659295
RightFoot  9.02024 0.0643773 -0.333704
RightToes  -29.3188 -0.141053 -0.248631
Spine  -1.34084 0.441583 -0.536488
Spine1  -2.72807 1.09279 -0.539714
HEad  -40.3574 19.0373 -9.0371
LeftShoulder1  -1.94126e-019 -3.10601e-018 -2.51263e-017
LeftArm  2.02707 9.99971 -81.31
LeftForeArm  30.005 -43.4378 -8.57484
LeftHand  -0.403467 -2.01916 6.51389
RightShoulder  -4.96962e-017 0 -2.36833e-017
RightArm  -24.7103 -18.3091 76.8557
RightForeArm  53.4761 15.6587 1.12069
RightHand  -0.352823 -1.20318 -9.69681
LeftUpLeg  -9.21186 -1.10835 1.4038
LeftLeg  3.41638 13.376 -0.0618741
LeftFoot  7.99066 -0.129132 2.03992
LeftToes  -21.6281 1.49739e-006 1.00523e-007
223
root  -27.6113 34.7505 5.71493 -171.93 57.7743 178.088
RightUpLeg  -8.0892 -19.3034 -4.03027
RightLeg  3.52003 -3.11031 0.00996143
RightFoot  9.19775 0.0636873 -0.322494
RightToes  -29.8467 -0.142291 -0.250165
Spine  -1.41207 0.418325 -0.573723
Spine1  -2.86423 1.05059 -0.603094
HEad  -40.5533 18.8134 -9.05577
LeftShoulder1  -1.94126e-019 -3.10601e-018 -2.51263e-017
LeftArm  2.80005 9.93636 -81.8033
LeftForeArm  30.5431 -45.1926 -9.15041
LeftHand  -0.42371 -2.13327 6.73619
RightShoulder  -4.96962e-017 0 -2.36833e-017
RightArm  -24.4256 -18.1497 76.9963
RightForeArm  53.3062 15.9295 1.1104
RightHand  -0.361271 -1.10925 -9.7242
LeftUpLeg  -8.5612 -1.10138 1.05541
LeftLeg  3.27503 13.5802 -0.0959657
LeftFoot  7.77012 -0.126249 2.02042
LeftToes  -21.2172 1.49739e-006 1.00523e-007
224
root  -27.5936 34.7562 5.54843 -172.566 58.1362 177.827
RightUpLeg  -7.46831 -19.1146 -4.57652
RightLeg  3.3535 -2.89636 0.017708
RightFoot  9.32053 0.0618322 -0.294639
RightToes  -29.9607 -0.14365 -0.251693
Spine  -1.47262 0.390588 -0.59889
Spine1  -2.98139 0.990195 -0.636715
HEad  -40.5218 18.6671 -9.00302
LeftShoulder1  -1.94126e-019 -3.10601e-018 -2.51263e-017
LeftArm  3.45028 10.0634 -82.3411
LeftForeArm  31.0184 -45.5159 -9.23437
LeftHand  -0.430206 -2.28189 6.71484
RightShoulder  -4.96962e-017 0 -2.36833e-017
RightArm  -24.126 -18.0373 77.0942
RightForeArm  53.0523 16.1977 1.11024
RightHand  -0.354961 -1.10306 -9.53906
LeftUpLeg  -7.87064 -0.961961 0.675979
LeftLeg  3.16376 13.7577 -0.123638
LeftFoot  7.48885 -0.119017 1.97997
LeftToes  -20.4972 1.49739e-006 1.00523e-007
225
root  -27.5833 34.7584 5.38474 -172.975 58.6371 177.63
RightUpLeg  -7.11372 -18.6259 -5.02162
RightLeg  3.25796 -2.8867 0.0224467
RightFoot  9.44667 0.0622606 -0.299427
RightToes  -30.1356 -0.144966 -0.253182
Spine  -1.58048 0.376865 -0.599785
Spine1  -3.19395 0.954592 -0.621681
HEad  -40.4429 18.5184 -8.92473
LeftShoulder1  -1.94126e-019 -3.10601e-018 -2.51263e-017
LeftArm  4.07925 10.4569 -82.7959
LeftForeArm  31.5708 -44.7557 -8.9252
LeftHand  -0.429578 -2.57559 6.47871
RightShoulder  -4.96962e-017 0 -2.36833e-017
RightArm  -23.9858 -18.0743 77.1564
RightForeArm  52.9394 16.4287 1.11402
RightHand  -0.360098 -1.06382 -9.5952
LeftUpLeg  -7.37291 -0.774993 0.329596
LeftLeg  3.10569 14.0423 -0.14022
LeftFoot  7.18478 -0.111995 1.94531
LeftToes  -19.994 1.49739e-006 1.00523e-007
226
root  -27.5529 34.7569 5.20979 -173.695 59.3238 177.283
RightUpLeg  -6.59109 -18.0605 -5.59852
RightLeg  3.17865 -2.76651 0.0253526
RightFoot  9.5448 0.061391 -0.285662
RightToes  -30.3742 -0.146245 -0.254682
Spine  -1.60071 0.415704 -0.62711
Spine1  -3.23776 1.0164 -0.6621
HEad  -40.4998 18.2467 -8.74774
LeftShoulder1  -1.94126e-019 -3.10601e-018 -2.51263e-017
LeftArm  4.3832 11.0415 -83.123
LeftForeArm  32.4545 -42.9899 -8.26415
LeftHand  -0.415645 -3.1266 5.90626
RightShoulder  -4.96962e-017 0 -2.36833e-017
RightArm  -24.0302 -18.1177 77.2455
RightForeArm  52.6261 16.5616 1.12766
RightHand  -0.363447 -1.09092 -9.56069
LeftUpLeg  -6.65216 -0.331377 -0.0993693
LeftLeg  3.05949 14.24 -0.153506
LeftFoot  6.89333 -0.104608 1.89828
LeftToes  -19.6274 1.49739e-006 1.00523e-007
227
root  -27.5139 34.7552 5.03585 -174.48 60.0976 176.961
RightUpLeg  -6.02085 -17.5066 -6.16079
RightLeg  3.13239 -2.53708 0.0253421
RightFoot  9.6831 0.05941 -0.256008
RightToes  -30.81 -0.147816 -0.256268
Spine  -1.62964 0.451291 -0.605437
Spine1  -3.30218 1.06657 -0.603579
HEad  -40.6403 18.0613 -8.59002
LeftShoulder1  -1.94126e-019 -3.10601e-018 -2.51263e-017
LeftArm  4.10757 11.9903 -83.4918
LeftForeArm  33.9328 -40.1212 -7.26957
LeftHand  -0.408399 -3.51059 5.58173
RightShoulder  -4.96962e-017 0 -2.36833e-017
RightArm  -24.1414 -18.3612 77.222
RightForeArm  52.7441 16.5745 1.12423
RightHand  -0.361629 -1.03091 -9.56717
LeftUpLeg  -5.88559 0.150395 -0.499682
LeftLeg  3.12206 14.5178 -0.14075
LeftFoot  6.55972 -0.0965878 1.84688
LeftToes  -19.2228 1.49739e-006 1.00523e-007
228
root  -27.4982 34.7409 4.87675 -174.868 60.6718 176.85
RightUpLeg  -5.74548 -17.1944 -6.53116
RightLeg  3.2131 -2.26778 0.0195403
RightFoot  9.68626 0.0565185 -0.213337
RightToes  -30.8769 -0.150006 -0.258015
Spine  -1.68078 0.423982 -0.547247
Spine1  -3.40986 0.994079 -0.474203
HEad  -40.836 17.8481 -8.39358
LeftShoulder1  -1.94126e-019 -3.10601e-018 -2.51263e-017
LeftArm  3.24933 13.0219 -83.7957
LeftForeArm  34.6861 -36.3952 -6.17395
LeftHand  -0.423612 -3.70547 5.66861
RightShoulder  -4.96962e-017 0 -2.36833e-017
RightArm  -24.1762 -18.6473 77.0903
RightForeArm  52.6374 16.5061 1.12548
RightHand  -0.354179 -1.08471 -9.47913
LeftUpLeg  -5.56121 0.325549 -0.773114
LeftLeg  3.52584 14.8706 -0.0405114
LeftFoot  5.97569 -0.0820793 1.73401
LeftToes  -18.5275 1.49739e-006 1.00523e-007
229
root  -27.5062 34.7177 4.72588 -175.079 61.1318 176.741
RightUpLeg  -5.85571 -16.9145 -6.8471
RightLeg  3.66056 -2.098 0.00181928
RightFoot  9.63011 0.0545136 -0.183329
RightToes  -31.3939 -0.153636 -0.260144
Spine  -1.74807 0.345865 -0.543516
Spine1  -3.55788 0.83232 -0.47092
HEad  -41.0657 17.6295 -8.12289
LeftShoulder1  -1.94126e-019 -3.10601e-018 -2.51263e-017
LeftArm  1.40546 14.2254 -83.8414
LeftForeArm  34.7746 -32.1537 -5.09654
LeftHand  -0.4311 -3.56796 5.84378
RightShoulder  -4.96962e-017 0 -2.36833e-017
RightArm  -24.5362 -18.9805 77.1086
RightForeArm  52.7112 16.2527 1.1201
RightHand  -0.356611 -1.09488 -9.56658
LeftUpLeg  -5.70668 0.376967 -1.05973
LeftLeg  4.41847 15.2764 0.193498
LeftFoot  5.29295 -0.0660593 1.59065
LeftToes  -18.1282 1.49739e-006 1.00523e-007
230
root  -27.4852 34.6973 4.5694 -175.413 61.7759 176.588
RightUpLeg  -5.83143 -16.4972 -7.19246
RightLeg  3.99979 -1.87489 -0.00934289
RightFoot  9.58032 0.0520139 -0.146237
RightToes  -31.6924 -0.156202 -0.262548
Spine  -1.79197 0.34281 -0.507522
Spine1  -3.65548 0.811094 -0.396683
HEad  -41.3691 17.2199 -7.99085
LeftShoulder1  -1.94126e-019 -3.10601e-018 -2.51263e-017
LeftArm  -1.73072 15.5149 -83.9415
LeftForeArm  34.6257 -26.9602 -4.03144
LeftHand  -0.446649 -3.26264 6.23829
RightShoulder  -4.96962e-017 0 -2.36833e-017
RightArm  -25.1908 -19.447 76.9813
RightForeArm  53.0653 15.8677 1.11981
RightHand  -0.34884 -1.16992 -9.51371
LeftUpLeg  -5.59134 0.630473 -1.35397
LeftLeg  5.0666 15.6541 0.373033
LeftFoot  4.65102 -0.0521675 1.44611
LeftToes  -17.5429 1.49739e-006 1.00523e-007
231
root  -27.4781 34.6739 4.43279 -175.736 62.2986 176.489
RightUpLeg  -5.8008 -16.0609 -7.49772
RightLeg  4.38448 -1.78356 -0.0207711
RightFoot  9.50501 0.0509839 -0.130133
RightToes  -31.9413 -0.158355 -0.264808
Spine  -1.79058 0.376621 -0.464196
Spine1  -3.66039 0.859836 -0.307675
HEad  -41.662 16.5494 -7.8912
LeftShoulder1  -1.94126e-019 -3.10601e-018 -2.51263e-017
LeftArm  -6.20814 16.7147 -83.8279
LeftForeArm  35.5836 -21.1215 -3.33091
LeftHand  -0.46764 -2.89222 6.78606
RightShoulder  -4.96962e-017 0 -2.36833e-017
RightArm  -25.8449 -19.9919 76.6858
RightForeArm  53.4464 15.3494 1.1452
RightHand  -0.349455 -1.194 -9.58284
LeftUpLeg  -5.58796 0.793695 -1.60056
LeftLeg  5.91487 15.9954 0.614826
LeftFoot  3.97223 -0.0389252 1.27929
LeftToes  -16.9535 1.49739e-006 1.00523e-007
232
root  -27.4885 34.6407 4.30639 -176.038 62.6466 176.365
RightUpLeg  -5.94221 -15.7258 -7.79917
RightLeg  5.05004 -1.75167 -0.0406614
RightFoot  9.28508 0.0502066 -0.11762
RightToes  -32.1314 -0.159996 -0.266503
Spine  -1.76634 0.311502 -0.480279
Spine1  -3.62499 0.715968 -0.342927
HEad  -42.0222 16.0294 -7.64559
LeftShoulder1  -1.94126e-019 -3.10601e-018 -2.51263e-017
LeftArm  -10.7882 18.0347 -83.1093
LeftForeArm  35.9462 -15.7145 -2.65832
LeftHand  -0.471626 -2.26496 7.35682
RightShoulder  -4.96962e-017 0 -2.36833e-017
RightArm  -26.763 -20.4833 76.5679
RightForeArm  54.2081 14.7185 1.19466
RightHand  -0.347347 -1.22446 -9.51265
LeftUpLeg  -5.82196 0.675657 -1.8616
LeftLeg  7.07032 16.4486 0.959544
LeftFoot  3.25322 -0.026605 1.09843
LeftToes  -16.3676 1.49739e-006 1.00523e-007
233
root  -27.4905 34.6025 4.19328 -176.134 63.0054 176.407
RightUpLeg  -6.26388 -15.5375 -7.97008
RightLeg  5.89551 -1.65123 -0.0625937
RightFoot  9.04829 0.0485523 -0.0925515
RightToes  -32.4324 -0.161025 -0.267634
Spine  -1.74737 0.31836 -0.446278
Spine1  -3.59479 0.699377 -0.256726
HEad  -42.365 15.3508 -7.51845
LeftShoulder1  -1.94126e-019 -3.10601e-018 -2.51263e-017
LeftArm  -14.5408 19.3708 -82.226
LeftForeArm  36.2027 -10.2804 -1.7897
LeftHand  -0.472922 -1.78357 7.83482
RightShoulder  -4.96962e-017 0 -2.36833e-017
RightArm  -27.7492 -21.1147 76.1889
RightForeArm  55.0469 14.0189 1.26884
RightHand  -0.339648 -1.25485 -9.55516
LeftUpLeg  -6.16722 0.639181 -2.01788
LeftLeg  8.34927 16.7764 1.34881
LeftFoot  2.48941 -0.0157876 0.888177
LeftToes  -15.7713 1.49739e-006 1.00523e-007
234
root  -27.5015 34.5427 4.09254 -176.201 63.3122 176.448
RightUpLeg  -6.78308 -15.079 -8.13548
RightLeg  7.14538 -1.75557 -0.104948
RightFoot  8.51621 0.0478867 -0.0815879
RightToes  -32.367 -0.160556 -0.268504
Spine  -1.71075 0.351004 -0.478993
Spine1  -3.52703 0.756305 -0.296837
HEad  -42.7195 14.7105 -7.44285
LeftShoulder1  -1.94126e-019 -3.10601e-018 -2.51263e-017
LeftArm  -16.6718 21.5465 -80.8474
LeftForeArm  35.906 -8.74025 -1.52391
LeftHand  -0.475024 -1.3736 8.31334
RightShoulder  -4.96962e-017 0 -2.36833e-017
RightArm  -28.7709 -21.7691 75.8998
RightForeArm  55.9307 13.2831 1.35332
RightHand  -0.336349 -1.3563 -9.57107
LeftUpLeg  -6.74866 0.662223 -2.16684
LeftLeg  10.0039 17.0224 1.85631
LeftFoot  1.54821 -0.00612502 0.614899
LeftToes  -15.2395 1.49739e-006 1.00523e-007
235
root  -27.5154 34.4907 4.00649 -176.188 63.5174 176.563
RightUpLeg  -7.2791 -14.964 -8.23991
RightLeg  8.27993 -1.6848 -0.134207
RightFoot  8.1239 0.0456406 -0.0480067
RightToes  -32.453 -0.160683 -0.269149
Spine  -1.70274 0.432427 -0.515712
Spine1  -3.49492 0.938974 -0.362105
HEad  -43.0042 14.1129 -7.22892
LeftShoulder1  -1.94126e-019 -3.10601e-018 -2.51263e-017
LeftArm  -17.9794 23.8679 -79.3775
LeftForeArm  35.8066 -7.85067 -1.36545
LeftHand  -0.474598 -1.12588 8.60178
RightShoulder  -4.96962e-017 0 -2.36833e-017
RightArm  -30.1006 -22.5313 75.6149
RightForeArm  57.1333 12.4651 1.43778
RightHand  -0.337564 -1.42148 -9.75693
LeftUpLeg  -7.26282 0.600773 -2.26508
LeftLeg  11.4329 17.2522 2.31014
LeftFoot  0.762632 -0.00146349 0.381498
LeftToes  -14.8196 1.49739e-006 1.00523e-007
